<svg xmlns="http://www.w3.org/2000/svg" viewBox="0 0 1280 720" width="1280" height="720"><defs><filter id="sh" x="-20%" y="-20%" width="140%" height="140%"><feDropShadow dx="0" dy="2" stdDeviation="5" flood-color="#90A4AE" flood-opacity="0.30"/></filter></defs><rect width="1280" height="720" fill="#EEF1F5"/><rect x="0" y="0" width="1280" height="64" rx="0" fill="#10243E"/><rect x="24" y="14" width="120" height="36" rx="8" fill="#1B3A5F" stroke="#46648C" stroke-width="1"/><text x="84.0" y="36.0" font-family="'Segoe UI','Segoe UI Semibold',system-ui,-apple-system,sans-serif" font-size="11" fill="#FFFFFF" font-weight="700" text-anchor="middle">‹ Visão Geral</text><text x="160" y="32" font-family="'Segoe UI','Segoe UI Semibold',system-ui,-apple-system,sans-serif" font-size="14" fill="#FFFFFF" font-weight="700" text-anchor="start">Terminal Portuário Leste (OBR-002)</text><text x="160" y="50" font-family="'Segoe UI','Segoe UI Semibold',system-ui,-apple-system,sans-serif" font-size="10" fill="#C7D6E8" font-weight="normal" text-anchor="start">Obra selecionada</text><rect x="596" y="20" width="120" height="26" rx="6" fill="#1B3A5F" stroke="#46648C" stroke-width="1"/><text x="656" y="37" font-family="'Segoe UI','Segoe UI Semibold',system-ui,-apple-system,sans-serif" font-size="11" fill="#FFFFFF" font-weight="700" text-anchor="middle">Execução</text><rect x="730" y="10" width="210" height="44" rx="6" fill="#FFFFFF" stroke="#46648C" stroke-width="1"/><text x="740" y="36.0" font-family="'Segoe UI','Segoe UI Semibold',system-ui,-apple-system,sans-serif" font-size="10" fill="#1F2937" font-weight="normal" text-anchor="start">Terminal Portuário Leste</text><path d="M 920 30.0 l 5 6 l 5 -6" fill="none" stroke="#5A6472" stroke-width="1.5"/><rect x="956" y="13" width="154" height="38" rx="8" fill="#1E88E5"/><text x="1033.0" y="36.0" font-family="'Segoe UI','Segoe UI Semibold',system-ui,-apple-system,sans-serif" font-size="11" fill="#FFFFFF" font-weight="700" text-anchor="middle">Orçamento Anual (PAN)</text><rect x="1118" y="13" width="138" height="38" rx="8" fill="#10243E" stroke="#46648C" stroke-width="1"/><text x="1187.0" y="36.0" font-family="'Segoe UI','Segoe UI Semibold',system-ui,-apple-system,sans-serif" font-size="11" fill="#C7D6E8" font-weight="700" text-anchor="middle">Ciclo de Vida</text><rect x="24" y="84" width="296" height="112" rx="10" fill="#FFFFFF" stroke="#E3E7EC" stroke-width="1" filter="url(#sh)"/><text x="42" y="110" font-family="'Segoe UI','Segoe UI Semibold',system-ui,-apple-system,sans-serif" font-size="11" fill="#5A6472" font-weight="600" text-anchor="start" letter-spacing="0.4">PLANEJADO PAN 2026</text><text x="42" y="142" font-family="'Segoe UI','Segoe UI Semibold',system-ui,-apple-system,sans-serif" font-size="26" fill="#10243E" font-weight="800" text-anchor="start">R$ 32 mi</text><rect x="336" y="84" width="296" height="112" rx="10" fill="#FFFFFF" stroke="#E3E7EC" stroke-width="1" filter="url(#sh)"/><text x="354" y="110" font-family="'Segoe UI','Segoe UI Semibold',system-ui,-apple-system,sans-serif" font-size="11" fill="#5A6472" font-weight="600" text-anchor="start" letter-spacing="0.4">REALIZADO NO ANO 2026</text><text x="354" y="142" font-family="'Segoe UI','Segoe UI Semibold',system-ui,-apple-system,sans-serif" font-size="26" fill="#10243E" font-weight="800" text-anchor="start">R$ 6 mi</text><rect x="648" y="84" width="296" height="112" rx="10" fill="#FFFFFF" stroke="#E3E7EC" stroke-width="1" filter="url(#sh)"/><text x="666" y="110" font-family="'Segoe UI','Segoe UI Semibold',system-ui,-apple-system,sans-serif" font-size="11" fill="#5A6472" font-weight="600" text-anchor="start" letter-spacing="0.4">% DO PAN REALIZADO</text><text x="666" y="142" font-family="'Segoe UI','Segoe UI Semibold',system-ui,-apple-system,sans-serif" font-size="26" fill="#E53935" font-weight="800" text-anchor="start">18%</text><rect x="960" y="84" width="296" height="112" rx="10" fill="#FFFFFF" stroke="#E3E7EC" stroke-width="1" filter="url(#sh)"/><text x="978" y="110" font-family="'Segoe UI','Segoe UI Semibold',system-ui,-apple-system,sans-serif" font-size="11" fill="#5A6472" font-weight="600" text-anchor="start" letter-spacing="0.4">SALDO PAN A REALIZAR</text><text x="978" y="142" font-family="'Segoe UI','Segoe UI Semibold',system-ui,-apple-system,sans-serif" font-size="26" fill="#10243E" font-weight="800" text-anchor="start">R$ 26 mi</text><rect x="24" y="216" width="1232" height="488" rx="10" fill="#FFFFFF" stroke="#E3E7EC" stroke-width="1" filter="url(#sh)"/><text x="42" y="240" font-family="'Segoe UI','Segoe UI Semibold',system-ui,-apple-system,sans-serif" font-size="12" fill="#10243E" font-weight="700" text-anchor="start">Planejado (PAN) vs. Realizado — 2026, mês a mês</text><rect x="996" y="232" width="10" height="10" rx="2" fill="#5B9BD5"/><text x="1012" y="241" font-family="'Segoe UI','Segoe UI Semibold',system-ui,-apple-system,sans-serif" font-size="10" fill="#1F2937" font-weight="normal" text-anchor="start">Planejado (PAN)</text><rect x="1136" y="232" width="10" height="10" rx="2" fill="#1565C0"/><text x="1152" y="241" font-family="'Segoe UI','Segoe UI Semibold',system-ui,-apple-system,sans-serif" font-size="10" fill="#1F2937" font-weight="normal" text-anchor="start">Realizado</text><line x1="80" y1="656.0" x2="1232" y2="656.0" stroke="#EDF0F4" stroke-width="1"/><text x="72" y="659.0" font-family="'Segoe UI','Segoe UI Semibold',system-ui,-apple-system,sans-serif" font-size="9" fill="#8A94A0" font-weight="normal" text-anchor="end">0</text><line x1="80" y1="559.0" x2="1232" y2="559.0" stroke="#EDF0F4" stroke-width="1"/><text x="72" y="562.0" font-family="'Segoe UI','Segoe UI Semibold',system-ui,-apple-system,sans-serif" font-size="9" fill="#8A94A0" font-weight="normal" text-anchor="end">2</text><line x1="80" y1="462.0" x2="1232" y2="462.0" stroke="#EDF0F4" stroke-width="1"/><text x="72" y="465.0" font-family="'Segoe UI','Segoe UI Semibold',system-ui,-apple-system,sans-serif" font-size="9" fill="#8A94A0" font-weight="normal" text-anchor="end">3</text><line x1="80" y1="365.0" x2="1232" y2="365.0" stroke="#EDF0F4" stroke-width="1"/><text x="72" y="368.0" font-family="'Segoe UI','Segoe UI Semibold',system-ui,-apple-system,sans-serif" font-size="9" fill="#8A94A0" font-weight="normal" text-anchor="end">5</text><line x1="80" y1="268.0" x2="1232" y2="268.0" stroke="#EDF0F4" stroke-width="1"/><text x="72" y="271.0" font-family="'Segoe UI','Segoe UI Semibold',system-ui,-apple-system,sans-serif" font-size="9" fill="#8A94A0" font-weight="normal" text-anchor="end">7</text><text x="72" y="262" font-family="'Segoe UI','Segoe UI Semibold',system-ui,-apple-system,sans-serif" font-size="8" fill="#8A94A0" font-weight="normal" text-anchor="end">R$ mi</text><rect x="98.2" y="636.9180327868852" width="28.799999999999997" height="19.081967213114755" rx="3" fill="#5B9BD5"/><rect x="129.0" y="550.7600596125186" width="28.799999999999997" height="105.23994038748137" rx="3" fill="#1565C0"/><text x="128.0" y="672" font-family="'Segoe UI','Segoe UI Semibold',system-ui,-apple-system,sans-serif" font-size="9" fill="#5A6472" font-weight="normal" text-anchor="middle">Jan</text><rect x="194.2" y="631.7138599105813" width="28.799999999999997" height="24.286140089418776" rx="3" fill="#5B9BD5"/><rect x="225.0" y="586.0327868852459" width="28.799999999999997" height="69.9672131147541" rx="3" fill="#1565C0"/><text x="224.0" y="672" font-family="'Segoe UI','Segoe UI Semibold',system-ui,-apple-system,sans-serif" font-size="9" fill="#5A6472" font-weight="normal" text-anchor="middle">Fev</text><rect x="290.2" y="602.2235469448584" width="28.799999999999997" height="53.77645305514158" rx="3" fill="#5B9BD5"/><rect x="321.0" y="603.9582712369597" width="28.799999999999997" height="52.04172876304024" rx="3" fill="#1565C0"/><text x="320.0" y="672" font-family="'Segoe UI','Segoe UI Semibold',system-ui,-apple-system,sans-serif" font-size="9" fill="#5A6472" font-weight="normal" text-anchor="middle">Mar</text><rect x="386.2" y="543.8211624441133" width="28.799999999999997" height="112.17883755588673" rx="3" fill="#5B9BD5"/><rect x="417.0" y="611.4754098360655" width="28.799999999999997" height="44.52459016393443" rx="3" fill="#1565C0"/><text x="416.0" y="672" font-family="'Segoe UI','Segoe UI Semibold',system-ui,-apple-system,sans-serif" font-size="9" fill="#5A6472" font-weight="normal" text-anchor="middle">Abr</text><rect x="482.2" y="444.3636363636364" width="28.799999999999997" height="211.63636363636365" rx="3" fill="#5B9BD5"/><rect x="513.0" y="624.7749627421758" width="28.799999999999997" height="31.225037257824148" rx="3" fill="#1565C0"/><text x="512.0" y="672" font-family="'Segoe UI','Segoe UI Semibold',system-ui,-apple-system,sans-serif" font-size="9" fill="#5A6472" font-weight="normal" text-anchor="middle">Mai</text><rect x="578.2" y="326.40238450074514" width="28.799999999999997" height="329.59761549925486" rx="3" fill="#5B9BD5"/><rect x="609.0" y="632.2921013412816" width="28.799999999999997" height="23.70789865871833" rx="3" fill="#1565C0"/><text x="608.0" y="672" font-family="'Segoe UI','Segoe UI Semibold',system-ui,-apple-system,sans-serif" font-size="9" fill="#5A6472" font-weight="normal" text-anchor="middle">Jun</text><rect x="674.2" y="268.0" width="28.799999999999997" height="388.0" rx="3" fill="#5B9BD5"/><rect x="705.0" y="639.8092399403874" width="28.799999999999997" height="16.19076005961252" rx="3" fill="#1565C0"/><text x="704.0" y="672" font-family="'Segoe UI','Segoe UI Semibold',system-ui,-apple-system,sans-serif" font-size="9" fill="#5A6472" font-weight="normal" text-anchor="middle">Jul</text><rect x="770.2" y="326.40238450074514" width="28.799999999999997" height="329.59761549925486" rx="3" fill="#5B9BD5"/><rect x="801.0" y="656.0" width="28.799999999999997" height="0.0" rx="3" fill="#1565C0"/><text x="800.0" y="672" font-family="'Segoe UI','Segoe UI Semibold',system-ui,-apple-system,sans-serif" font-size="9" fill="#5A6472" font-weight="normal" text-anchor="middle">Ago</text><rect x="866.2" y="444.3636363636364" width="28.799999999999997" height="211.63636363636365" rx="3" fill="#5B9BD5"/><rect x="897.0" y="656.0" width="28.799999999999997" height="0.0" rx="3" fill="#1565C0"/><text x="896.0" y="672" font-family="'Segoe UI','Segoe UI Semibold',system-ui,-apple-system,sans-serif" font-size="9" fill="#5A6472" font-weight="normal" text-anchor="middle">Set</text><rect x="962.2" y="543.8211624441133" width="28.799999999999997" height="112.17883755588673" rx="3" fill="#5B9BD5"/><rect x="993.0" y="656.0" width="28.799999999999997" height="0.0" rx="3" fill="#1565C0"/><text x="992.0" y="672" font-family="'Segoe UI','Segoe UI Semibold',system-ui,-apple-system,sans-serif" font-size="9" fill="#5A6472" font-weight="normal" text-anchor="middle">Out</text><rect x="1058.2" y="602.2235469448584" width="28.799999999999997" height="53.77645305514158" rx="3" fill="#5B9BD5"/><rect x="1089.0" y="656.0" width="28.799999999999997" height="0.0" rx="3" fill="#1565C0"/><text x="1088.0" y="672" font-family="'Segoe UI','Segoe UI Semibold',system-ui,-apple-system,sans-serif" font-size="9" fill="#5A6472" font-weight="normal" text-anchor="middle">Nov</text><rect x="1154.2" y="631.7138599105813" width="28.799999999999997" height="24.286140089418776" rx="3" fill="#5B9BD5"/><rect x="1185.0" y="656.0" width="28.799999999999997" height="0.0" rx="3" fill="#1565C0"/><text x="1184.0" y="672" font-family="'Segoe UI','Segoe UI Semibold',system-ui,-apple-system,sans-serif" font-size="9" fill="#5A6472" font-weight="normal" text-anchor="middle">Dez</text><line x1="80" y1="656" x2="1232" y2="656" stroke="#E3E7EC" stroke-width="1"/></svg>